<?xml version="1.0" encoding="UTF-8" standalone="no"?>
<!-- Created with Inkscape (http://www.inkscape.org/) -->

<svg
   width="90"
   height="90"
   viewBox="0 0 23.8125 23.8125"
   version="1.1"
   id="svg1"
   xml:space="preserve"
   sodipodi:docname="favicon.svg"
   inkscape:version="1.3.2 (091e20e, 2023-11-25, custom)"
   xmlns:inkscape="http://www.inkscape.org/namespaces/inkscape"
   xmlns:sodipodi="http://sodipodi.sourceforge.net/DTD/sodipodi-0.dtd"
   xmlns="http://www.w3.org/2000/svg"
   xmlns:svg="http://www.w3.org/2000/svg"><sodipodi:namedview
     id="namedview1"
     pagecolor="#ffffff"
     bordercolor="#666666"
     borderopacity="1.0"
     inkscape:showpageshadow="2"
     inkscape:pageopacity="0.0"
     inkscape:pagecheckerboard="0"
     inkscape:deskcolor="#d1d1d1"
     inkscape:document-units="mm"
     inkscape:zoom="0.75495668"
     inkscape:cx="-46.360276"
     inkscape:cy="292.06974"
     inkscape:window-width="1920"
     inkscape:window-height="1057"
     inkscape:window-x="-8"
     inkscape:window-y="-8"
     inkscape:window-maximized="1"
     inkscape:current-layer="layer1"
     showguides="false" /><defs
     id="defs1" /><g
     inkscape:label="Capa 1"
     inkscape:groupmode="layer"
     id="layer1"><rect
       style="fill:#333333;fill-opacity:1;stroke:none;stroke-width:0.0474198;stroke-linecap:round;stroke-linejoin:round;stroke-dasharray:none"
       id="rect9"
       width="23.8125"
       height="23.8125"
       x="-2.220446e-15"
       y="-2.6645353e-15" /><path
       style="fill:#000000"
       id="path1"
       d="" /><path
       id="path9"
       style="color:#000000;fill:#fd6503;fill-opacity:1;stroke:none;stroke-width:0.0268281;stroke-linecap:round;stroke-linejoin:round;stroke-dasharray:none"
       d="m 13.391227,15.589875 c 0.822659,0.67455 1.871363,1.08203 3.010829,1.08203 2.619991,0 4.76461,-2.14671 4.76461,-4.76671 0,-2.61999 -2.144619,-4.7646 -4.76461,-4.7646 -1.821395,0 -3.409453,1.03943 -4.210756,2.55181 l 1.507507,1.78313 c 0.203991,-1.31547 1.326036,-2.30712 2.703249,-2.30712 1.524005,0 2.736781,1.21277 2.736781,2.73678 0,1.52402 -1.212776,2.73888 -2.736781,2.73888 -0.524013,0 -1.009494,-0.14622 -1.423673,-0.39666 L 10.422318,8.222105 C 9.6001347,7.547925 8.5520997,7.140595 7.4125437,7.140595 c -2.620002,0 -4.7667101,2.14461 -4.7667101,4.7646 0,2.62 2.1467081,4.76671 4.7667101,4.76671 1.820918,0 3.4072823,-1.03995 4.2081313,-2.55234 l -1.507508,-1.7826 c -0.2044183,1.31487 -1.3240603,2.30711 -2.7006233,2.30711 -1.524016,0 -2.73888,-1.21486 -2.73888,-2.73888 0,-1.52401 1.214864,-2.73678 2.73888,-2.73678 0.523799,0 1.008875,0.14621 1.422618,0.39614 z"
       sodipodi:nodetypes="csssccsssccsssccssscc" /></g></svg>
