<?xml version="1.0" encoding="UTF-8" standalone="no"?>
<!-- Created with Inkscape (http://www.inkscape.org/) -->

<svg
   width="70"
   height="36.023998"
   viewBox="0 0 18.520833 9.5313495"
   version="1.1"
   id="svg1"
   xml:space="preserve"
   inkscape:version="1.3.2 (091e20e, 2023-11-25, custom)"
   sodipodi:docname="new_logo.svg"
   xmlns:inkscape="http://www.inkscape.org/namespaces/inkscape"
   xmlns:sodipodi="http://sodipodi.sourceforge.net/DTD/sodipodi-0.dtd"
   xmlns="http://www.w3.org/2000/svg"
   xmlns:svg="http://www.w3.org/2000/svg"><sodipodi:namedview
     id="namedview1"
     pagecolor="#ffffff"
     bordercolor="#666666"
     borderopacity="1.0"
     inkscape:showpageshadow="2"
     inkscape:pageopacity="0.0"
     inkscape:pagecheckerboard="0"
     inkscape:deskcolor="#d1d1d1"
     inkscape:document-units="mm"
     inkscape:zoom="7.2742679"
     inkscape:cx="53.132495"
     inkscape:cy="14.090765"
     inkscape:window-width="1920"
     inkscape:window-height="1009"
     inkscape:window-x="1912"
     inkscape:window-y="-8"
     inkscape:window-maximized="1"
     inkscape:current-layer="layer1" /><defs
     id="defs1" /><g
     inkscape:label="Capa 1"
     inkscape:groupmode="layer"
     id="layer1"><path
       style="fill:#000000"
       id="path1"
       d="" /><path
       id="path9"
       style="color:#000000;fill:#000000;stroke:none;stroke-width:0.0268281;stroke-linecap:round;stroke-linejoin:round;stroke-dasharray:none;fill-opacity:1"
       d="m 10.745394,8.4492998 c 0.822659,0.67455 1.871363,1.08203 3.010829,1.08203 2.619991,0 4.76461,-2.14671 4.76461,-4.76671 0,-2.61999 -2.144619,-4.764600030122 -4.76461,-4.764600030122 -1.821395,0 -3.409453,1.039430030122 -4.2107568,2.551810030122 l 1.5075078,1.78313 c 0.203991,-1.31547 1.326036,-2.30712 2.703249,-2.30712 1.524005,0 2.736781,1.21277 2.736781,2.73678 0,1.52402 -1.212776,2.73888 -2.736781,2.73888 -0.524013,0 -1.009494,-0.14622 -1.423673,-0.39666 L 7.7764842,1.0815298 C 6.9543012,0.40734977 5.9062662,1.9769878e-5 4.7667102,1.9769878e-5 2.1467082,1.9769878e-5 1.6666667e-7,2.1446298 1.6666667e-7,4.7646198 c 0,2.62 2.14670803333333,4.76671 4.76671003333333,4.76671 1.820918,0 3.407282,-1.03995 4.208131,-2.55234 l -1.507508,-1.7826 c -0.204418,1.31487 -1.32406,2.30711 -2.700623,2.30711 -1.524016,0 -2.73888,-1.21486 -2.73888,-2.73888 0,-1.52401 1.214864,-2.73678 2.73888,-2.73678 0.523799,0 1.008875,0.14621 1.422618,0.39614 z"
       sodipodi:nodetypes="csssccsssccsssccssscc" /></g></svg>
